# Blender v2.73 (sub 0) OBJ File: 'box_scene.blend'
# www.blender.org
mtllib cube_textured.mtl
o Box08
v 0.493921 -0.395107 -0.529401
v 0.494594 -0.395107 0.433381
v -0.468189 -0.395107 0.434054
v -0.468862 -0.395107 -0.528728
v 0.493921 0.604893 -0.529401
v -0.468862 0.604893 -0.528728
v -0.468189 0.604893 0.434054
v 0.494594 0.604893 0.433381
vt 0.955600 0.143900
vt 0.957900 0.372200
vt 0.729600 0.374400
vt 0.731900 0.607000
vt 0.960200 0.604700
vt 0.962400 0.833000
vt 0.503600 0.609200
vt 0.273000 0.378900
vt 0.275300 0.611500
vt 0.047000 0.613800
vt 0.501300 0.376700
vt 0.727400 0.146100
vt 0.734100 0.835300
vt 0.044700 0.381200
vn -0.000000 -1.000000 -0.000000
vn 0.000000 1.000000 0.000000
vn -0.000700 0.000000 -1.000000
vn -1.000000 -0.000000 0.000700
vn 0.000700 -0.000000 1.000000
vn 1.000000 0.000000 -0.000700
usemtl None
s off
f 2/1/1 3/2/1 4/3/1
f 6/4/2 7/5/2 8/6/2
f 4/3/3 6/4/3 5/7/3
f 3/2/4 7/5/4 6/4/4
f 2/8/5 8/9/5 7/10/5
f 1/11/6 5/7/6 8/9/6
f 1/12/1 2/1/1 4/3/1
f 5/13/2 6/4/2 8/6/2
f 1/11/3 4/3/3 5/7/3
f 4/3/4 3/2/4 6/4/4
f 3/14/5 2/8/5 7/10/5
f 2/8/6 1/11/6 8/9/6
