# Blender v2.62 (sub 0) OBJ File: ''
# www.blender.org
mtllib icosa-smoo.mtl
o Icosphere
v 0.000000 -1.000000 0.000000
v 0.723600 -0.447215 0.525720
v -0.276385 -0.447215 0.850640
v -0.894425 -0.447215 0.000000
v -0.276385 -0.447215 -0.850640
v 0.723600 -0.447215 -0.525720
v 0.276385 0.447215 0.850640
v -0.723600 0.447215 0.525720
v -0.723600 0.447215 -0.525720
v 0.276385 0.447215 -0.850640
v 0.894425 0.447215 0.000000
v 0.000000 1.000000 0.000000
v -0.162456 -0.850654 0.499995
v 0.425323 -0.850654 0.309011
v 0.262869 -0.525738 0.809012
v 0.425323 -0.850654 -0.309011
v 0.850648 -0.525736 0.000000
v -0.525730 -0.850652 0.000000
v -0.688189 -0.525736 0.499997
v -0.162456 -0.850654 -0.499995
v -0.688189 -0.525736 -0.499997
v 0.262869 -0.525738 -0.809012
v 0.951058 0.000000 -0.309013
v 0.951058 0.000000 0.309013
v 0.587786 0.000000 0.809017
v 0.000000 0.000000 1.000000
v -0.587786 0.000000 0.809017
v -0.951058 0.000000 0.309013
v -0.951058 0.000000 -0.309013
v -0.587786 0.000000 -0.809017
v 0.000000 0.000000 -1.000000
v 0.587786 0.000000 -0.809017
v 0.688189 0.525736 0.499997
v -0.262869 0.525738 0.809012
v -0.850648 0.525736 0.000000
v -0.262869 0.525738 -0.809012
v 0.688189 0.525736 -0.499997
v 0.525730 0.850652 0.000000
v 0.162456 0.850654 0.499995
v -0.425323 0.850654 0.309011
v -0.425323 0.850654 -0.309011
v 0.162456 0.850654 -0.499995
vt 0.000000 0.000000
vt 1.000000 0.000000
vt 1.000000 1.000000
vn 0.262856 -0.525712 0.808985
vn -0.276376 -0.447218 0.850642
vn -0.162450 -0.850642 0.499985
vn 0.425306 -0.850642 0.309000
vn 0.723594 -0.447188 0.525712
vn 0.000000 -1.000000 0.000000
vn 0.850642 -0.525712 0.000000
vn 0.425306 -0.850642 -0.309000
vn 0.723594 -0.447188 -0.525712
vn -0.688162 -0.525712 0.499985
vn -0.894406 -0.447188 0.000000
vn -0.525712 -0.850642 0.000000
vn -0.688162 -0.525712 -0.499985
vn -0.276376 -0.447218 -0.850642
vn -0.162450 -0.850642 -0.499985
vn 0.262856 -0.525712 -0.808985
vn 0.951048 0.000000 0.309000
vn 0.951048 0.000000 -0.309000
vn 0.894406 0.447188 0.000000
vn 0.000000 0.000000 1.000000
vn 0.587756 0.000000 0.809015
vn 0.276376 0.447218 0.850642
vn -0.951048 0.000000 0.309000
vn -0.587756 0.000000 0.809015
vn -0.723594 0.447188 0.525712
vn -0.587756 0.000000 -0.809015
vn -0.951048 0.000000 -0.309000
vn -0.723594 0.447188 -0.525712
vn 0.587756 0.000000 -0.809015
vn 0.000000 0.000000 -1.000000
vn 0.276376 0.447218 -0.850642
vn 0.688162 0.525712 0.499985
vn -0.262856 0.525712 0.808985
vn -0.850642 0.525712 0.000000
vn -0.262856 0.525712 -0.808985
vn 0.688162 0.525712 -0.499985
vn 0.162450 0.850642 0.499985
vn 0.525712 0.850642 0.000000
vn 0.000000 1.000000 0.000000
vn -0.425306 0.850642 0.309000
vn -0.425306 0.850642 -0.309000
vn 0.162450 0.850642 -0.499985
usemtl Material.001
s 1
f 15/1/1 3/2/2 13/3/3
f 13/1/3 14/2/4 15/3/1
f 2/1/5 15/2/1 14/3/4
f 13/1/3 1/2/6 14/3/4
f 17/1/7 2/2/5 14/3/4
f 14/1/4 16/2/8 17/3/7
f 6/1/9 17/2/7 16/3/8
f 14/1/4 1/2/6 16/3/8
f 19/1/10 4/2/11 18/3/12
f 18/1/12 13/2/3 19/3/10
f 3/1/2 19/2/10 13/3/3
f 18/1/12 1/2/6 13/3/3
f 21/1/13 5/2/14 20/3/15
f 20/1/15 18/2/12 21/3/13
f 4/1/11 21/2/13 18/3/12
f 20/1/15 1/2/6 18/3/12
f 22/1/16 6/2/9 16/3/8
f 16/1/8 20/2/15 22/3/16
f 5/1/14 22/2/16 20/3/15
f 16/1/8 1/2/6 20/3/15
f 24/1/17 2/2/5 17/3/7
f 17/1/7 23/2/18 24/3/17
f 11/1/19 24/2/17 23/3/18
f 23/1/18 17/2/7 6/3/9
f 26/1/20 3/2/2 15/3/1
f 15/1/1 25/2/21 26/3/20
f 7/1/22 26/2/20 25/3/21
f 25/1/21 15/2/1 2/3/5
f 28/1/23 4/2/11 19/3/10
f 19/1/10 27/2/24 28/3/23
f 8/1/25 28/2/23 27/3/24
f 27/1/24 19/2/10 3/3/2
f 30/1/26 5/2/14 21/3/13
f 21/1/13 29/2/27 30/3/26
f 9/1/28 30/2/26 29/3/27
f 29/1/27 21/2/13 4/3/11
f 32/1/29 6/2/9 22/3/16
f 22/1/16 31/2/30 32/3/29
f 10/1/31 32/2/29 31/3/30
f 31/1/30 22/2/16 5/3/14
f 33/1/32 7/2/22 25/3/21
f 25/1/21 24/2/17 33/3/32
f 11/1/19 33/2/32 24/3/17
f 24/1/17 25/2/21 2/3/5
f 34/1/33 8/2/25 27/3/24
f 27/1/24 26/2/20 34/3/33
f 7/1/22 34/2/33 26/3/20
f 26/1/20 27/2/24 3/3/2
f 35/1/34 9/2/28 29/3/27
f 29/1/27 28/2/23 35/3/34
f 8/1/25 35/2/34 28/3/23
f 28/1/23 29/2/27 4/3/11
f 36/1/35 10/2/31 31/3/30
f 31/1/30 30/2/26 36/3/35
f 9/1/28 36/2/35 30/3/26
f 30/1/26 31/2/30 5/3/14
f 37/1/36 11/2/19 23/3/18
f 23/1/18 32/2/29 37/3/36
f 10/1/31 37/2/36 32/3/29
f 32/1/29 23/2/18 6/3/9
f 39/1/37 7/2/22 33/3/32
f 33/1/32 38/2/38 39/3/37
f 12/1/39 39/2/37 38/3/38
f 38/1/38 33/2/32 11/3/19
f 40/1/40 8/2/25 34/3/33
f 34/1/33 39/2/37 40/3/40
f 12/1/39 40/2/40 39/3/37
f 39/1/37 34/2/33 7/3/22
f 41/1/41 9/2/28 35/3/34
f 35/1/34 40/2/40 41/3/41
f 12/1/39 41/2/41 40/3/40
f 40/1/40 35/2/34 8/3/25
f 42/1/42 10/2/31 36/3/35
f 36/1/35 41/2/41 42/3/42
f 12/1/39 42/2/42 41/3/41
f 41/1/41 36/2/35 9/3/28
f 38/1/38 11/2/19 37/3/36
f 37/1/36 42/2/42 38/3/38
f 12/1/39 38/2/38 42/3/42
f 42/1/42 37/2/36 10/3/31
