# Blender v2.65 (sub 0) OBJ File: ''
# www.blender.org
mtllib lower_arm.mtl
o Body_Cylinder
v 0.000000 0.000001 -0.300000
v 1.000000 -0.000001 -0.300000
v 1.000000 -0.058528 -0.294236
v 0.000000 -0.058526 -0.294236
v 1.000000 -0.114806 -0.277164
v 0.000000 -0.114804 -0.277164
v 1.000000 -0.166672 -0.249441
v 0.000000 -0.166670 -0.249441
v 1.000000 -0.212133 -0.212132
v 0.000000 -0.212131 -0.212132
v 1.000000 -0.249442 -0.166671
v 0.000000 -0.249440 -0.166671
v 1.000000 -0.277165 -0.114805
v 0.000000 -0.277163 -0.114805
v 1.000000 -0.294236 -0.058527
v 0.000000 -0.294235 -0.058527
v 1.000000 -0.300001 -0.000000
v 0.000000 -0.299999 -0.000000
v 1.000000 -0.294236 0.058527
v 0.000000 -0.294235 0.058527
v 1.000000 -0.277165 0.114805
v 0.000000 -0.277163 0.114805
v 1.000000 -0.249442 0.166671
v 0.000000 -0.249440 0.166671
v 1.000000 -0.212133 0.212132
v 0.000000 -0.212131 0.212132
v 1.000000 -0.166672 0.249441
v 0.000000 -0.166670 0.249441
v 1.000000 -0.114806 0.277164
v 0.000000 -0.114804 0.277164
v 1.000000 -0.058528 0.294236
v 0.000000 -0.058526 0.294236
v 1.000000 -0.000001 0.300000
v 0.000000 0.000001 0.300000
v 1.000000 0.058527 0.294236
v 0.000000 0.058528 0.294236
v 1.000000 0.114805 0.277164
v 0.000000 0.114806 0.277164
v 1.000000 0.166671 0.249441
v 0.000000 0.166672 0.249441
v 1.000000 0.212132 0.212132
v 0.000000 0.212133 0.212132
v 1.000000 0.249440 0.166671
v 0.000000 0.249442 0.166671
v 1.000000 0.277163 0.114805
v 0.000000 0.277165 0.114805
v 1.000000 0.294235 0.058527
v 0.000000 0.294236 0.058527
v 1.000000 0.299999 0.000000
v 0.000000 0.300001 0.000000
v 1.000000 0.294235 -0.058527
v 0.000000 0.294236 -0.058527
v 1.000000 0.277163 -0.114805
v 0.000000 0.277164 -0.114805
v 1.000000 0.249440 -0.166671
v 0.000000 0.249441 -0.166671
v 1.000000 0.212131 -0.212132
v 0.000000 0.212132 -0.212132
v 1.000000 0.166670 -0.249441
v 0.000000 0.166671 -0.249441
v 1.000000 0.114804 -0.277164
v 0.000000 0.114805 -0.277164
v 1.000000 0.058526 -0.294236
v 0.000000 0.058527 -0.294236
vn -0.000000 -0.098010 -0.995185
vn -0.000001 -0.290288 -0.956939
vn -0.000001 -0.471397 -0.881921
vn -0.000001 -0.471398 -0.881921
vn -0.000001 -0.634394 -0.773010
vn -0.000002 -0.773010 -0.634394
vn -0.000002 -0.773009 -0.634395
vn -0.000002 -0.881921 -0.471397
vn -0.000002 -0.956944 -0.290274
vn -0.000001 -0.956939 -0.290289
vn -0.000001 -0.995184 -0.098027
vn -0.000002 -0.995185 -0.098010
vn -0.000002 -0.995184 0.098027
vn -0.000001 -0.995185 0.098010
vn -0.000001 -0.956944 0.290273
vn -0.000002 -0.956939 0.290288
vn -0.000002 -0.881921 0.471397
vn -0.000002 -0.773010 0.634394
vn -0.000001 -0.634395 0.773009
vn -0.000001 -0.471397 0.881921
vn -0.000001 -0.471398 0.881921
vn -0.000001 -0.290289 0.956939
vn -0.000000 -0.098010 0.995185
vn 0.000000 0.098009 0.995186
vn 0.000000 0.098010 0.995185
vn 0.000000 0.290288 0.956939
vn 0.000000 0.471398 0.881921
vn 0.000000 0.471397 0.881921
vn 0.000001 0.634394 0.773010
vn 0.000001 0.773018 0.634384
vn 0.000002 0.773010 0.634394
vn 0.000002 0.881921 0.471397
vn 0.000002 0.956939 0.290289
vn 0.000001 0.956944 0.290274
vn 0.000001 0.995185 0.098010
vn 0.000002 0.995184 0.098027
vn 0.000002 0.995185 -0.098010
vn 0.000001 0.995184 -0.098027
vn 0.000001 0.956939 -0.290288
vn 0.000001 0.881921 -0.471397
vn 0.000001 0.881921 -0.471398
vn 0.000001 0.773010 -0.634394
vn 0.000001 0.634395 -0.773009
vn 0.000001 0.634394 -0.773010
vn 0.000000 0.471398 -0.881921
vn 1.000000 0.000000 0.000000
vn 0.000000 0.098012 -0.995185
vn 0.000000 0.098010 -0.995185
vn 0.000000 0.290289 -0.956939
vn -1.000000 -0.000000 -0.000000
usemtl Material.002
s off
f 1//1 2//1 3//1
f 1//1 3//1 4//1
f 4//2 3//2 5//2
f 4//2 5//2 6//2
f 6//3 5//3 7//3
f 6//4 7//4 8//4
f 8//5 7//5 9//5
f 8//5 9//5 10//5
f 10//6 9//6 11//6
f 10//7 11//7 12//7
f 12//8 11//8 13//8
f 12//8 13//8 14//8
f 14//9 13//9 15//9
f 14//10 15//10 16//10
f 16//11 15//11 17//11
f 16//12 17//12 18//12
f 18//13 17//13 19//13
f 18//14 19//14 20//14
f 20//15 19//15 21//15
f 20//16 21//16 22//16
f 22//17 21//17 23//17
f 22//17 23//17 24//17
f 24//18 23//18 25//18
f 24//18 25//18 26//18
f 26//19 25//19 27//19
f 26//19 27//19 28//19
f 28//20 27//20 29//20
f 28//21 29//21 30//21
f 30//22 29//22 31//22
f 30//22 31//22 32//22
f 32//23 31//23 33//23
f 32//23 33//23 34//23
f 34//24 33//24 35//24
f 34//25 35//25 36//25
f 36//26 35//26 37//26
f 36//26 37//26 38//26
f 38//27 37//27 39//27
f 38//28 39//28 40//28
f 40//29 39//29 41//29
f 40//29 41//29 42//29
f 42//30 41//30 43//30
f 42//31 43//31 44//31
f 44//32 43//32 45//32
f 44//32 45//32 46//32
f 46//33 45//33 47//33
f 46//34 47//34 48//34
f 48//35 47//35 49//35
f 48//36 49//36 50//36
f 50//37 49//37 51//37
f 50//38 51//38 52//38
f 52//39 51//39 53//39
f 52//39 53//39 54//39
f 54//40 53//40 55//40
f 54//41 55//41 56//41
f 56//42 55//42 57//42
f 56//42 57//42 58//42
f 58//43 57//43 59//43
f 58//44 59//44 60//44
f 60//45 59//45 61//45
f 60//45 61//45 62//45
f 3//46 2//46 63//46
f 3//46 63//46 61//46
f 3//46 61//46 5//46
f 61//46 59//46 5//46
f 59//46 7//46 5//46
f 59//46 57//46 7//46
f 57//46 9//46 7//46
f 57//46 55//46 9//46
f 55//46 11//46 9//46
f 55//46 53//46 11//46
f 53//46 13//46 11//46
f 53//46 51//46 13//46
f 51//46 15//46 13//46
f 51//46 49//46 15//46
f 49//46 17//46 15//46
f 49//46 47//46 17//46
f 47//46 19//46 17//46
f 47//46 45//46 19//46
f 45//46 21//46 19//46
f 45//46 43//46 21//46
f 43//46 23//46 21//46
f 43//46 41//46 23//46
f 41//46 25//46 23//46
f 41//46 39//46 25//46
f 39//46 27//46 25//46
f 39//46 37//46 27//46
f 37//46 29//46 27//46
f 37//46 35//46 29//46
f 35//46 31//46 29//46
f 35//46 33//46 31//46
f 2//47 1//47 64//47
f 2//48 64//48 63//48
f 62//49 61//49 63//49
f 62//49 63//49 64//49
f 1//50 4//50 64//50
f 4//50 62//50 64//50
f 4//50 6//50 62//50
f 6//50 60//50 62//50
f 6//50 8//50 60//50
f 8//50 58//50 60//50
f 8//50 10//50 58//50
f 10//50 56//50 58//50
f 10//50 12//50 56//50
f 12//50 54//50 56//50
f 12//50 14//50 54//50
f 14//50 52//50 54//50
f 14//50 16//50 52//50
f 16//50 50//50 52//50
f 16//50 18//50 50//50
f 18//50 48//50 50//50
f 18//50 20//50 48//50
f 20//50 46//50 48//50
f 20//50 22//50 46//50
f 22//50 44//50 46//50
f 22//50 24//50 44//50
f 24//50 42//50 44//50
f 24//50 26//50 42//50
f 26//50 40//50 42//50
f 26//50 28//50 40//50
f 28//50 38//50 40//50
f 28//50 30//50 38//50
f 30//50 36//50 38//50
f 30//50 32//50 36//50
f 32//50 34//50 36//50
